<svg width="26" height="26" viewBox="0 0 512 512" fill="white" xmlns="http://www.w3.org/2000/svg">
<path d="M255.9 0C114.6 0 0 114.6 0 255.9C0 397.2 114.6 511.8 255.9 511.8C397.2 511.8 511.8 397.2 511.8 255.9C511.8 114.6 397.2 0 255.9 0ZM378.7 392.6C364.4 417.2 344.7 442.3 317.1 442.3C291.2 442.3 282.3 427.6 251.7 427.6C220.7 427.6 210.4 442.3 185.5 442.3C155.9 442.3 132.3 412.4 117.3 388.1C96.3 354.3 77.8 303.2 96.6 259.5C109.7 229.7 138.8 210.3 170.8 210.3C193.4 210.3 211 224 251.7 224C291.7 224 306.2 210.3 331.7 210.3C359 210.3 382.6 225.3 398.2 248.2C375.8 264.8 361.4 294.7 361.4 325.6C361.4 361.7 379.9 393.4 378.7 392.6Z"/>
</svg>

